<?xml version="1.0" encoding="utf-8"?>
<!-- Svg Vector Icons : http://www.onlinewebfonts.com/icon -->
<!DOCTYPE svg PUBLIC "-//W3C//DTD SVG 1.1//EN" "http://www.w3.org/Graphics/SVG/1.1/DTD/svg11.dtd">
<svg version="1.1" xmlns="http://www.w3.org/2000/svg" xmlns:xlink="http://www.w3.org/1999/xlink" x="0px" y="0px" viewBox="0 0 1000 1000" enable-background="new 0 0 1000 1000" xml:space="preserve">
<metadata> Svg Vector Icons : http://www.onlinewebfonts.com/icon </metadata>
<g><path d="M271.4,663.3c-36.1,0-65.4,29.2-65.4,65.3c0,36.1,29.3,65.4,65.4,65.4c36,0,65.3-29.3,65.3-65.4C336.7,692.6,307.4,663.3,271.4,663.3z M990,71.2L930.6,10H782.1l-61.6,53l-44,2.4l-3.2,43l-19.5,21l-59.9,2.9l-0.6,52.1l-44.3,27.7l-56-3.9l-23.6,70.8l-39.5,34c-27.1-7.3-55.3-11.5-84.6-11.5C160.1,301.4,10,455.5,10,645.7C10,835.8,160.1,990,345.1,990c185.2,0,335.2-154.2,335.2-344.3c0-22.2-2.2-43.9-6.1-64.9L990,255V71.2z M540.6,259.1l64.9,3.2l30.6-28.7l-6.4-66.3l64,12.4l39.3-36.8L718.8,106l47.6,5.4L835.2,63h103.2L570.3,412.2L510.9,351l40-37.5L540.6,259.1z M345.1,937C188.4,937,61.4,806.6,61.4,645.7c0-160.9,127.1-291.4,283.8-291.4c56.7,0,109.3,17.2,153.7,46.6l101.5,117.7c18.2,38.5,28.7,81.4,28.7,127C629,806.6,501.9,937,345.1,937z M956.4,231.3L661.9,529.1l-61.8-86.3L957.5,96.3L956.4,231.3z"/></g>
</svg>